<svg xmlns="http://www.w3.org/2000/svg" width="16.4" height="22.264" viewBox="0 0 16.4 22.264">
  <g id="noun_profile_1905240" transform="translate(-150 93.908)" style="isolation: isolate">
    <g id="Layer_2" data-name="Layer 2" transform="translate(150 -93.908)">
      <g id="Layer_1" data-name="Layer 1" transform="translate(0 0)">
        <path id="Path_4377" data-name="Path 4377" d="M16.737,2.968c0-2.274-3.83-2.274-3.83-2.274-.349,0,0-.651,0-.651-2.432-.326-3.131,1.3-3.131,1.3-2.087,0-1.723,2.274-1.723,2.274V6.185a4.337,4.337,0,1,0,8.674,0h0ZM12.386,9.574a3.38,3.38,0,0,1-3.38-3.351l.081-2.235a3.169,3.169,0,0,1,1.393-.857c.349,1.115,4.868,1.809,4.868,1.809a1.881,1.881,0,0,1,.22.124,3.351,3.351,0,0,1-3.183,4.509Z" transform="translate(-4.186 0)"/>
        <path id="Path_4378" data-name="Path 4378" d="M15.917,32.071H12.566a.479.479,0,0,1,0-.957h2.848c-.3-3.059-3.423-5.476-7.219-5.476S1.278,28.055.957,31.114H3.83a.479.479,0,0,1,0,.957H.479A.479.479,0,0,1,0,31.592c0-3.83,3.676-6.912,8.2-6.912s8.2,3.1,8.2,6.912a.479.479,0,0,1-.483.479Z" transform="translate(0 -12.866)"/>
        <path id="Path_4379" data-name="Path 4379" d="M13.278,31.73a3.538,3.538,0,1,0,3.538,3.538,3.538,3.538,0,0,0-3.538-3.538Zm-.306,1.652a.426.426,0,1,1-.124.3.407.407,0,0,1,.12-.3Zm.957,3.652H12.6V36.9a.407.407,0,0,0,.2-.072.34.34,0,0,0,.081-.258V34.966a.345.345,0,0,0-.057-.23.407.407,0,0,0-.22-.091v-.129h1.048v2.078a.335.335,0,0,0,.053.23.421.421,0,0,0,.2.081Z" transform="translate(-5.077 -16.541)"/>
      </g>
    </g>
  </g>
</svg>
