<svg xmlns="http://www.w3.org/2000/svg" width="15.172" height="13.831" viewBox="0 0 15.172 13.831">
  <g id="hipa_notice" data-name="hipa notice" transform="translate(-2.5 -6.7)" style="isolation: isolate">
    <path id="Path_4399" data-name="Path 4399" d="M44.868,22.689a.972.972,0,0,0-.655.335,1,1,0,0,0-.224.7l.256,3a.67.67,0,0,0,.623.623h.064a.763.763,0,0,0,.447-.16.661.661,0,0,0,.24-.463l.287-3v-.16a.972.972,0,0,0-.335-.655A1.03,1.03,0,0,0,44.868,22.689Z" transform="translate(-34.862 -13.434)"/>
    <circle id="Ellipse_136" data-name="Ellipse 136" cx="0.91" cy="0.91" r="0.91" transform="translate(9.176 14.622)"/>
    <path id="Path_4400" data-name="Path 4400" d="M10.086,6.7C5.9,6.7,2.5,9.447,2.5,12.833a5.636,5.636,0,0,0,2.284,4.392,4.384,4.384,0,0,1-.527,1.1,1.433,1.433,0,0,0,1.214,2.2,1.191,1.191,0,0,0,.415-.064,9.417,9.417,0,0,0,2.891-1.6c4.7.671,8.9-2.316,8.9-6.037C17.672,9.447,14.271,6.7,10.086,6.7ZM8.713,17.512a.677.677,0,0,0-.543.144,8.3,8.3,0,0,1-2.651,1.533c-.032,0-.08,0-.1-.016-.016-.032-.048-.08-.016-.112a6.007,6.007,0,0,0,.815-1.948.671.671,0,0,0-.272-.7,4.426,4.426,0,0,1-2.092-3.577c0-2.651,2.795-4.791,6.245-4.791s6.245,2.156,6.245,4.791C16.331,15.819,12.705,18.2,8.713,17.512Z"/>
  </g>
</svg>
