<svg id="language" xmlns="http://www.w3.org/2000/svg" width="19.328" height="21.412" viewBox="0 0 19.328 21.412">
  <path id="Path_4402" data-name="Path 4402" d="M62.755,25.376a6.1,6.1,0,0,0-4.819,9.834L55.8,37.572h6.955a6.1,6.1,0,1,0,0-12.2Zm.707-3.282h1.344v1.344H63.463ZM67.03,16.16A6.606,6.606,0,0,1,72.5,26.469l2.628,2.9H68.751a6.334,6.334,0,0,0-.461-1.017h4.553l-1.655-1.83a5.68,5.68,0,0,0,1.432-3.76,5.59,5.59,0,1,0-10.637,2.4,6.328,6.328,0,0,0-1.021.211A6.609,6.609,0,0,1,67.03,16.16Zm-.672,5.934H67.7v1.344H66.357Zm2.9,0H70.6v1.344H69.253ZM59.188,30.8h1.343v1.344H59.188Zm2.895,0h1.344v1.344H62.083Zm2.9,0h1.343v1.344H64.979Z" transform="translate(-55.8 -16.16)" fill-rule="evenodd"/>
</svg>
