<svg xmlns="http://www.w3.org/2000/svg" width="17.059" height="15.129" viewBox="0 0 17.059 15.129">
  <g id="medicine" transform="translate(-2.5 -7.839)" style="isolation: isolate">
    <path id="Path_4387" data-name="Path 4387" d="M2.608,67.782a.391.391,0,0,0,0,.539l2.585,2.585a.391.391,0,0,0,.539,0l1.382-1.382L3.99,66.4Z" transform="translate(0 -48.047)"/>
    <path id="Path_4388" data-name="Path 4388" d="M29.487,51.95a.9.9,0,0,0-.862-.359l-2.765.467c0,.072-.018.126-.018.2A1.68,1.68,0,0,1,24.316,53.6l-.18.018a16.732,16.732,0,0,1-3-.054l-.808-.09a.46.46,0,1,1,.09-.916l.808.09a18.711,18.711,0,0,0,2.837.054l.18-.018a.763.763,0,0,0,.7-.61.728.728,0,0,0-.126-.575.762.762,0,0,0-.485-.323l-4.219-.736a2.182,2.182,0,0,0-1.382.215L14.8,52.722l3.268,3.268,3.519.844a2.473,2.473,0,0,0,1.813-.269l5.8-3.322a.878.878,0,0,0,.431-.575A.928.928,0,0,0,29.487,51.95Z" transform="translate(-10.092 -34.926)"/>
    <path id="Path_4389" data-name="Path 4389" d="M39.136,13.936l4.435,1.436a2.848,2.848,0,0,0,.952.144,3.3,3.3,0,0,0,1.418-.341A3.118,3.118,0,0,0,47.5,13.362a3.159,3.159,0,0,0-.2-2.388A3.029,3.029,0,0,0,45.492,9.43L41.057,7.993A3.121,3.121,0,0,0,37.125,10a3.159,3.159,0,0,0,.2,2.388A3.029,3.029,0,0,0,39.136,13.936Zm3.806-4.076,2.19.7a2,2,0,0,1,1.131.97A1.916,1.916,0,0,1,46.389,13a2,2,0,0,1-.97,1.131,1.916,1.916,0,0,1-1.472.126l-2.172-.7Zm-4.74.305a.425.425,0,0,1,.215-.251.406.406,0,0,1,.323-.018.429.429,0,0,1,.269.539,1.363,1.363,0,0,0,.09,1.059,1.331,1.331,0,0,0,.808.682l.557.18a.425.425,0,0,1,.251.215.406.406,0,0,1,.018.323.426.426,0,0,1-.413.287.306.306,0,0,1-.126-.018l-.557-.18a2.23,2.23,0,0,1-1.311-1.113A2.336,2.336,0,0,1,38.2,10.166Z" transform="translate(-28.287 0)"/>
  </g>
</svg>
