<svg xmlns="http://www.w3.org/2000/svg" width="22.964" height="25.089" viewBox="0 0 22.964 25.089">
  <g id="price_check" data-name="price check" transform="translate(1063.25 -567.374)">
    <path id="Path_9021" data-name="Path 9021" d="M46.125,10a7.642,7.642,0,0,0-5.019,1.874l-8.447.016a.818.818,0,0,0-.815.817v2.028a.818.818,0,0,0,.817.817h.713v1.4l-.058.028-.066.032-.078.041-.063.034-.078.045-.06.035-.078.048-.057.036-.079.054-.052.036-.086.063-.042.031q-.063.048-.124.1l-.022.019c-.033.028-.066.056-.1.084l-.043.04-.073.068-.047.047-.065.065-.048.051-.06.064-.048.054-.056.065-.047.057-.053.066-.045.059-.05.067-.043.061-.048.069-.041.063-.045.07-.039.064-.042.071L31.4,18.8l-.04.073-.035.067-.037.074-.033.069-.034.076-.03.07-.032.077-.028.07c-.01.026-.02.053-.029.079l-.025.071c-.009.027-.018.054-.026.081l-.023.072c-.008.027-.016.055-.024.082s-.014.048-.02.072-.014.056-.021.084-.012.048-.017.072-.012.057-.018.086-.01.048-.015.072-.01.059-.015.088-.008.047-.012.071-.008.061-.012.092-.006.046-.009.069-.006.065-.009.1,0,.043-.006.065,0,.072-.006.109c0,.018,0,.036,0,.055q0,.082,0,.164V32.739a2.353,2.353,0,0,0,2.35,2.35H44.368a2.353,2.353,0,0,0,2.35-2.35V25.326A7.675,7.675,0,0,0,46.125,10Zm-7.17,4.939h-.368V12.49l.921,0v1.3A7.642,7.642,0,0,0,38.954,14.939Zm-4.967,0V12.5l.921,0v2.442ZM35.521,12.5l.921,0v2.445h-.921Zm1.533,0,.921,0v2.448h-.921Zm3.066-.006h.355q-.185.2-.355.415Zm-7.665,2.247V12.707a.205.205,0,0,1,.2-.205h.716v2.439H32.66A.205.205,0,0,1,32.455,14.734Zm6.294.817a7.621,7.621,0,0,0-.254,1.291H33.985V15.551Zm-7.3,5.26c0-.015,0-.03,0-.045,0-.033,0-.065.006-.1s0-.037.005-.056.005-.057.008-.086.005-.039.008-.059.007-.055.011-.082.007-.04.01-.059.009-.053.014-.08.008-.04.012-.06.01-.052.016-.078.01-.04.015-.06.012-.051.019-.076.011-.039.017-.059.014-.051.022-.076.013-.039.019-.059.016-.05.024-.074l.021-.058c.009-.024.017-.048.027-.072l.023-.058c.01-.024.019-.048.029-.071l.025-.056c.011-.024.021-.047.032-.071l.027-.055.034-.069.029-.055.037-.068.031-.053.039-.066.033-.052.041-.064.035-.051.043-.063.037-.05.045-.061.039-.049.047-.059.041-.048.049-.057.043-.047.051-.055.045-.045.053-.053.046-.044.054-.05.048-.042.056-.048.05-.041.057-.046.052-.039.059-.043.054-.037.06-.041.056-.036.061-.038.057-.034.063-.036.059-.032.064-.033.061-.03.065-.031.063-.028.041-.017h4.713c0,.073,0,.146,0,.22a7.627,7.627,0,0,0,.9,3.594l-7.9,0v-.317Q31.447,20.883,31.449,20.812Zm0,1.072,8.262,0a7.722,7.722,0,0,0,.616.815v9.777H31.447ZM44.368,34.477H33.185a1.741,1.741,0,0,1-1.7-1.392h9.149a.306.306,0,0,0,.306-.306V23.325a7.645,7.645,0,0,0,5.17,2.024v7.39A1.74,1.74,0,0,1,44.368,34.477Zm1.757-9.74a7.071,7.071,0,0,1-7.063-7.063c0-.145.005-.288.014-.43a.3.3,0,0,0,.01-.149,7.063,7.063,0,1,1,7.039,7.642Z" transform="translate(-1094.085 557.374)" fill="#de1937"/>
    <path id="Path_9022" data-name="Path 9022" d="M71.993,306.117H66.066a.306.306,0,1,0,0,.612h5.927a.306.306,0,1,0,0-.612Z" transform="translate(-1127.229 276.357)" fill="#de1937"/>
    <path id="Path_9023" data-name="Path 9023" d="M120.493,346.2h-3.321a.306.306,0,0,0,0,.612h3.321a.306.306,0,0,0,0-.612Z" transform="translate(-1175.729 238.318)" fill="#de1937"/>
    <path id="Path_9024" data-name="Path 9024" d="M66.066,346.812H67.56a.306.306,0,1,0,0-.612H66.066a.306.306,0,0,0,0,.612Z" transform="translate(-1127.229 238.318)" fill="#de1937"/>
    <path id="Path_9025" data-name="Path 9025" d="M160.317,386.284h-1.182a.306.306,0,0,0,0,.612h1.182a.306.306,0,0,0,0-.612Z" transform="translate(-1215.553 200.278)" fill="#de1937"/>
    <path id="Path_9026" data-name="Path 9026" d="M69.691,386.284H66.066a.306.306,0,0,0,0,.612h3.625a.306.306,0,0,0,0-.612Z" transform="translate(-1127.229 200.278)" fill="#de1937"/>
    <path id="Path_9027" data-name="Path 9027" d="M28.486,9.217h-.9c-.51,0-.563-.136-.563-.446V8.5a.489.489,0,0,1,.082-.335,1.142,1.142,0,0,1,.653-.1c.532,0,1.721.048,2.4.109a.226.226,0,0,0,.246-.225V6.525a.226.226,0,0,0-.16-.216,7.72,7.72,0,0,0-1.773-.331V5.226A.226.226,0,0,0,28.249,5H27.187a.226.226,0,0,0-.226.226v.743A2.155,2.155,0,0,0,24.75,8.328h0v.694a2.233,2.233,0,0,0,2.373,2.471h.862c.407,0,.447.12.447.414v.322c0,.146,0,.367-.625.367-.972,0-2.02-.067-2.558-.108a.226.226,0,0,0-.243.225v1.412a.226.226,0,0,0,.159.216,5.933,5.933,0,0,0,1.8.341v.709a.226.226,0,0,0,.226.226h1.062a.226.226,0,0,0,.226-.226V14.7a2.216,2.216,0,0,0,2.233-2.545V11.69A2.219,2.219,0,0,0,28.486,9.217Zm1.77,2.937c0,1.413-.656,2.1-2.007,2.1a.226.226,0,0,0-.226.226v.686h-.61v-.7a.226.226,0,0,0-.219-.226,5.368,5.368,0,0,1-1.736-.28v-1c.582.04,1.494.091,2.349.091.714,0,1.077-.275,1.077-.818v-.322c0-.372-.093-.866-.9-.866h-.862A1.773,1.773,0,0,1,25.2,9.022V8.329c.005-1.251.657-1.879,1.992-1.921a.226.226,0,0,0,.219-.226v-.73h.61v.739a.226.226,0,0,0,.215.226,7.384,7.384,0,0,1,1.718.277V7.7c-.7-.052-1.712-.091-2.191-.091a1.323,1.323,0,0,0-.974.228.868.868,0,0,0-.216.657v.275c0,.621.313.9,1.015.9h.9a1.775,1.775,0,0,1,1.77,2.021v.464Z" transform="translate(-1075.148 565.171)" fill="#de1937"/>
  </g>
</svg>
