<svg xmlns="http://www.w3.org/2000/svg" width="17.218" height="23.64" viewBox="0 0 17.218 23.64">
  <g id="refill_request" data-name="refill request" transform="translate(1034.926 -568.823)">
    <path id="Path_9031" data-name="Path 9031" d="M10.342,8.985h1.252v1.252a.4.4,0,1,0,.8,0V8.985h1.252a.4.4,0,0,0,0-.8H12.391V6.936a.4.4,0,1,0-.8,0V8.188H10.342a.4.4,0,0,0,0,.8Z" transform="translate(-1038.278 568.622)" fill="#de1937"/>
    <path id="Path_9030" data-name="Path 9030" d="M13.192,14.708a2.8,2.8,0,1,0-2.463,4.13,2.772,2.772,0,0,0,1.232-.3c.028.031.048.065.077.095a2.349,2.349,0,1,0,1.154-3.928ZM10.331,18a2.012,2.012,0,0,1,0-3.943Zm.8-3.944a2.012,2.012,0,0,1,0,3.943Zm1.5,4.031a2.8,2.8,0,0,0,.679-.944l1.175,1.174A1.586,1.586,0,0,1,12.625,18.09Zm2.417-.335L13.518,16.23c0-.067.02-.132.02-.2a2.816,2.816,0,0,0-.061-.576,1.535,1.535,0,0,1,1.773,1.522A1.528,1.528,0,0,1,15.042,17.755Z" transform="translate(-1038.279 568.835)" fill="#de1937"/>
    <path id="Path_9028" data-name="Path 9028" d="M17.133,11.817H6.816A1.618,1.618,0,0,0,5.2,13.434v5.477a1.618,1.618,0,0,0,1.616,1.617H17.132a1.618,1.618,0,0,0,1.616-1.617V13.434A1.618,1.618,0,0,0,17.133,11.817Zm.818,7.094a.819.819,0,0,1-.818.819H6.816A.819.819,0,0,1,6,18.911V13.434a.819.819,0,0,1,.818-.819H17.132a.819.819,0,0,1,.818.819v5.477Z" transform="translate(-1038.282 568.835)" fill="#de1937"/>
    <path id="Path_9029" data-name="Path 9029" d="M20.577,21.207l0-11.145a2.374,2.374,0,0,0-.941-1.845c-.187-.175-.379-.344-.574-.515a14.185,14.185,0,0,1-1.037-.977c-.085-.09-.153-.169-.265-.306a.8.8,0,0,1-.214-.636v-.5h.039a1.477,1.477,0,0,0,1.532-1.411V1.546A1.477,1.477,0,0,0,17.583.136H6.354a1.477,1.477,0,0,0-1.533,1.41V3.871A1.478,1.478,0,0,0,6.354,5.282l.038.5a.786.786,0,0,1-.19.611c-.01.009-.065.078-.074.088-.061.073-.13.152-.215.243A13.681,13.681,0,0,1,4.879,7.7c-.2.171-.39.342-.541.489a2.406,2.406,0,0,0-.978,1.885h0c0,.021,0,.041,0,.06V21.208a2.516,2.516,0,0,0,2.568,2.568H18.009A2.518,2.518,0,0,0,20.577,21.207ZM6.354,4.484a.683.683,0,0,1-.735-.613V1.546A.682.682,0,0,1,6.354.934H17.583a.682.682,0,0,1,.734.612V3.871a.682.682,0,0,1-.734.613H6.354ZM19.779,21.207a1.734,1.734,0,0,1-1.77,1.77H5.927a1.734,1.734,0,0,1-1.77-1.77V10.084A1.645,1.645,0,0,1,4.848,8.8c.181-.17.368-.334.557-.5A14.653,14.653,0,0,0,6.5,7.269c.1-.1.177-.194.237-.269l.074-.092A1.562,1.562,0,0,0,7.19,5.783v-.5h9.556v.5A1.508,1.508,0,0,0,17.1,6.87c.01.017.079.1.092.121.07.085.15.176.246.278A14.17,14.17,0,0,0,18.534,8.3c.187.165.374.329.59.527a1.635,1.635,0,0,1,.656,1.3Z" transform="translate(-1038.285 568.687)" fill="#de1937"/>
  </g>
</svg>
