<svg xmlns="http://www.w3.org/2000/svg" width="20.424" height="26.014" viewBox="0 0 20.424 26.014">
  <g id="transfer" transform="translate(1088.32 -567.374)">
    <g id="noun_Prescription_2934563" transform="translate(-1088.32 567.374)" style="isolation: isolate">
      <g id="Group_79" data-name="Group 79" transform="translate(0 0)">
        <g id="Group_78" data-name="Group 78">
          <path id="Path_361" data-name="Path 361" d="M35.519,26.638h1.053V27.7a.361.361,0,0,0,.361.361h1.414a.361.361,0,0,0,.361-.361V26.638h1.053a.361.361,0,0,0,.361-.361V24.854a.361.361,0,0,0-.361-.361H38.709V23.432a.361.361,0,0,0-.361-.361H36.934a.361.361,0,0,0-.361.361v1.061H35.519a.361.361,0,0,0-.361.361v1.422A.361.361,0,0,0,35.519,26.638Zm.361-1.422h1.053a.361.361,0,0,0,.361-.361V23.793h.692v1.061a.361.361,0,0,0,.361.361H39.4v.7H38.348a.361.361,0,0,0-.361.361v1.061H37.3V26.277a.361.361,0,0,0-.361-.361H35.881Z" transform="translate(-30.309 -19.793)" fill="#de1937"/>
          <path id="Path_362" data-name="Path 362" d="M41.166,15a3.375,3.375,0,0,0-2.377-1c-.007,0-.014,0-.021,0H25.127a3.4,3.4,0,0,0-3.392,3.41V38.026a1.085,1.085,0,0,0,1.084,1.084H34.243l.155.2A1.789,1.789,0,0,0,35.6,40a1.842,1.842,0,0,0,.228.014,1.787,1.787,0,0,0,1.105-.383,1.816,1.816,0,0,0,.448-2.344A2.853,2.853,0,1,0,36.1,31.739V26.18h4.185a1.883,1.883,0,0,0,1.877-1.886V17.41A3.4,3.4,0,0,0,41.166,15ZM36.491,39.06h0a1.077,1.077,0,0,1-1.519-.193l-1.111-1.441,1.715-1.339.845,1.1.007.005.257.333A1.1,1.1,0,0,1,36.491,39.06Zm-3.073-2.2-1.109-1.438a1.1,1.1,0,0,1,.192-1.534,1.083,1.083,0,0,1,.167-.107c.02-.011.041-.018.062-.027a1.067,1.067,0,0,1,.119-.046c.025-.008.05-.013.075-.019a1.05,1.05,0,0,1,.118-.021c.025,0,.051-.005.076-.006a1.07,1.07,0,0,1,.179,0,1.092,1.092,0,0,1,.725.414l.143.186h0l.333.433h0l.634.822Zm3.476-.246h0l-.966-1.25h0l-.4-.523h3.464A2.129,2.129,0,0,1,36.894,36.61Zm0-4.267a2.128,2.128,0,0,1,2.091,1.771H34.963l-.122-.158c0-.017.007-.035.012-.052s.018-.062.028-.093.029-.087.046-.13.024-.059.037-.088.039-.083.061-.124.029-.055.045-.082.05-.08.076-.119.033-.049.051-.073c.03-.04.061-.077.094-.115.018-.021.035-.042.054-.063.036-.039.075-.075.114-.111.018-.017.035-.034.054-.05.046-.039.095-.076.144-.112.014-.01.028-.022.042-.032a2.207,2.207,0,0,1,.205-.125A2.094,2.094,0,0,1,36.894,32.342ZM35.375,17.41V32.06c-.013.008-.023.019-.036.027a2.878,2.878,0,0,0-.288.215l-.021.016a2.831,2.831,0,0,0-.268.27c-.025.028-.047.058-.07.086-.058.072-.113.146-.164.224-.022.033-.044.066-.064.1a2.83,2.83,0,0,0-.146.278c-.008.017-.018.032-.026.049a1.79,1.79,0,0,0-.217-.147c-.015-.009-.032-.016-.048-.024a1.805,1.805,0,0,0-.243-.109l-.081-.028a1.866,1.866,0,0,0-.312-.072,1.779,1.779,0,0,0-1.334.369,1.82,1.82,0,0,0-.319,2.545l1.949,2.527H22.819a.362.362,0,0,1-.361-.361V17.41a2.682,2.682,0,0,1,2.67-2.687H36.681A3.411,3.411,0,0,0,35.375,17.41Zm6.062,6.884a1.16,1.16,0,0,1-1.154,1.163H36.1V17.5A2.789,2.789,0,0,1,37.83,14.9h0c.069-.027.139-.049.211-.07l.091-.024c.047-.012.094-.023.142-.032s.093-.015.14-.022.077-.011.116-.014.083,0,.124-.006a2.673,2.673,0,0,1,2.781,2.682v6.884Z" transform="translate(-21.735 -14)" fill="#de1937"/>
          <path id="Path_363" data-name="Path 363" d="M40.621,46.695H34.016a.361.361,0,0,0,0,.723h6.605a.361.361,0,0,0,0-.723Z" transform="translate(-29.348 -34.882)" fill="#de1937"/>
          <path id="Path_364" data-name="Path 364" d="M30.548,46.695h-.063a.361.361,0,1,0,0,.723h.063a.361.361,0,0,0,0-.723Z" transform="translate(-27.093 -34.882)" fill="#de1937"/>
          <path id="Path_365" data-name="Path 365" d="M49.67,55.976h-.063a.361.361,0,1,0,0,.723h.063a.361.361,0,0,0,0-.723Z" transform="translate(-39.306 -40.81)" fill="#de1937"/>
          <path id="Path_366" data-name="Path 366" d="M38.15,56.337a.361.361,0,0,0-.361-.361H33a.361.361,0,1,0,0,.723h4.786A.361.361,0,0,0,38.15,56.337Z" transform="translate(-28.701 -40.81)" fill="#de1937"/>
          <path id="Path_367" data-name="Path 367" d="M42.017,65.257H39.05a.361.361,0,0,0,0,.723h2.968a.361.361,0,0,0,0-.723Z" transform="translate(-32.563 -46.738)" fill="#de1937"/>
          <path id="Path_368" data-name="Path 368" d="M35.583,65.257h-.063a.361.361,0,0,0,0,.723h.063a.361.361,0,0,0,0-.723Z" transform="translate(-30.309 -46.738)" fill="#de1937"/>
        </g>
      </g>
    </g>
  </g>
</svg>
