<?xml version="1.0" encoding="utf-8"?>
<!-- Generator: Adobe Illustrator 25.0.0, SVG Export Plug-In . SVG Version: 6.00 Build 0)  -->
<svg version="1.1" id="Layer_1" xmlns="http://www.w3.org/2000/svg" xmlns:xlink="http://www.w3.org/1999/xlink" x="0px" y="0px"
	 viewBox="0 0 45 48" style="enable-background:new 0 0 45 48;" xml:space="preserve">
<style type="text/css">
	.st0{fill:#E31835;}
</style>
<g id="Page-1">
	<g id="_x30_11---Vaccine-Injection" transform="translate(0 -1)">
		<path id="Shape" class="st0" d="M33.3,2.7C32.5,3.1,32,3.9,32,4.9c0,0.9,0.6,1.7,1.5,2l2.1,0.8l-1,2.8l-2.1-0.8
			C31.3,9.3,30,9.9,29.6,11l-7.2,19.7c-0.4,1.2,0.2,2.5,1.3,2.9c-0.7,1.9,0.3,4.1,2.2,4.8l-2.9,8c-0.1,0.3-0.1,0.5,0.1,0.7
			s0.4,0.3,0.7,0.3s0.5-0.2,0.6-0.5l2.9-8c1.9,0.7,4.1-0.3,4.8-2.2c1.2,0.4,2.5-0.2,2.9-1.3l7.2-19.7c0.2-0.6,0.2-1.2-0.1-1.7
			s-0.7-1-1.3-1.2L38.8,12l1-2.8L42,9.9c0.2,0.1,0.5,0.1,0.8,0.1c1.1,0,2-0.8,2.2-1.9s-0.4-2.1-1.4-2.5l-8.5-3.1
			C34.5,2.4,33.9,2.5,33.3,2.7L33.3,2.7z M38.5,21.6c-0.4-0.2-0.7-0.4-1.1-0.6c-1-0.4-2-0.4-3-0.2c-1.5,0.4-3.1-0.2-4-1.4
			c-0.5-0.6-1-1.1-1.7-1.5l0.5-1.5l0.7,0.3c0.1,0,0.2,0,0.3,0c0.4,0,0.7-0.3,0.7-0.6c0.1-0.4-0.1-0.7-0.5-0.8l-0.7-0.3l0.5-1.4
			l9.9,3.6L38.5,21.6z M29.7,37.5c-0.5,0.3-1.2,0.3-1.7,0.1L26.5,37c-0.6-0.2-1-0.6-1.3-1.2c-0.3-0.5-0.3-1.2-0.1-1.7l2.8,1l2.8,1
			C30.6,36.8,30.2,37.2,29.7,37.5z M33.7,34.9c-0.1,0.2-0.2,0.3-0.4,0.4c-0.2,0.1-0.4,0.1-0.6,0l-6.8-2.5L25,32.5l-0.7-0.3
			c-0.2-0.1-0.3-0.2-0.4-0.4c-0.1-0.2-0.1-0.4,0-0.6l0.3-0.7l0.7,0.3c0.1,0,0.2,0,0.3,0c0.4,0,0.7-0.3,0.7-0.6s-0.1-0.7-0.5-0.8
			l-0.7-0.3l0.8-2.1l0.7,0.3c0.1,0,0.2,0,0.3,0c0.4,0,0.7-0.3,0.7-0.6c0.1-0.4-0.1-0.7-0.5-0.8l-0.7-0.3l0.8-2.1l0.7,0.3
			c0.1,0,0.2,0,0.3,0c0.4,0,0.7-0.3,0.7-0.6c0.1-0.4-0.1-0.7-0.5-0.8l-0.7-0.3l1-2.8c0.4,0.3,0.8,0.6,1.1,1c1.3,1.7,3.4,2.4,5.4,2
			c0.7-0.2,1.5-0.2,2.2,0.1c0.4,0.1,0.8,0.3,1.1,0.6L33.7,34.9z M40.9,14.6c0.1,0.2,0.1,0.4,0,0.6l-0.3,0.7l-9.9-3.6l0.3-0.7
			c0.1-0.2,0.2-0.3,0.4-0.4c0.2-0.1,0.4-0.1,0.6,0l5.2,1.9l0.5,0.2l2.8,1C40.6,14.2,40.8,14.4,40.9,14.6L40.9,14.6z M36,11l1-2.8
			l1.4,0.5l-1,2.8L36,11z M43.4,7.5c0.1,0.2,0.1,0.4,0,0.6c-0.1,0.2-0.2,0.3-0.4,0.4c-0.2,0.1-0.4,0.1-0.6,0l-2.8-1l-2.8-1l-2.8-1
			c-0.3-0.1-0.4-0.3-0.5-0.6c0-0.3,0.1-0.5,0.3-0.7C34,4,34.3,3.9,34.5,4L43,7.1C43.2,7.2,43.3,7.3,43.4,7.5L43.4,7.5z"/>
		<path id="Shape_1_" class="st0" d="M31.7,22.9c-0.4-0.1-0.8,0.1-1,0.5c-0.1,0.4,0.1,0.8,0.4,1c0.4,0.1,0.8-0.1,1-0.4
			c0.1-0.2,0.1-0.4,0-0.6C32,23.2,31.8,23,31.7,22.9L31.7,22.9z"/>
		<path id="Shape_2_" class="st0" d="M29.5,31c-0.4-0.1-0.8,0.1-1,0.5c-0.1,0.4,0.1,0.8,0.4,1c0.4,0.1,0.8-0.1,1-0.4
			c0.1-0.2,0.1-0.4,0-0.6S29.7,31,29.5,31L29.5,31z"/>
		<path id="Shape_3_" class="st0" d="M33.1,29.9c-0.4-0.1-0.8,0.1-1,0.5s0.1,0.8,0.4,1c0.4,0.1,0.8-0.1,1-0.4c0.1-0.2,0.1-0.4,0-0.6
			C33.5,30.1,33.3,29.9,33.1,29.9L33.1,29.9z"/>
		<path id="Shape_4_" class="st0" d="M35.4,23.5c-0.4-0.1-0.8,0.1-1,0.4c-0.1,0.4,0.1,0.8,0.4,1c0.4,0.1,0.8-0.1,1-0.4
			c0.1-0.2,0.1-0.4,0-0.6S35.6,23.6,35.4,23.5L35.4,23.5z"/>
		<path id="Shape_5_" class="st0" d="M33.7,26.1c-0.4-0.1-0.8,0.1-1,0.5c-0.1,0.4,0.1,0.8,0.4,1c0.4,0.1,0.8-0.1,1-0.4
			c0.1-0.2,0.1-0.4,0-0.6S33.9,26.2,33.7,26.1L33.7,26.1z"/>
		<path id="Shape_6_" class="st0" d="M30.4,26.5c-0.4-0.1-0.8,0.1-1,0.4c-0.1,0.4,0.1,0.8,0.4,1c0.4,0.1,0.8-0.1,1-0.4
			c0.1-0.2,0.1-0.4,0-0.6C30.7,26.7,30.6,26.5,30.4,26.5L30.4,26.5z"/>
		<path id="Shape_7_" class="st0" d="M3.7,47.5h13.5c2.1,0,3.7-1.7,3.7-3.7v-15c0-2.9-2.4-5.2-5.2-5.2c-0.4,0-0.7-0.3-0.7-0.7V22
			h0.7c0.8,0,1.5-0.7,1.5-1.5V16c0-0.8-0.7-1.5-1.5-1.5H5.2c-0.8,0-1.5,0.7-1.5,1.5v4.5c0,0.8,0.7,1.5,1.5,1.5H6v0.7
			c0,0.4-0.3,0.7-0.7,0.7c-2.9,0-5.2,2.4-5.2,5.2v15C0,45.8,1.7,47.5,3.7,47.5z M19.5,28.8v3h-18v-3c0-0.1,0-0.2,0-0.3
			c0.2,0.1,0.3,0.2,0.5,0.3c0.9,0.6,2,0.9,3.1,0.8c1.1,0,2.2-0.3,3.1-0.8c0.7-0.4,1.5-0.7,2.3-0.7c0.8,0,1.6,0.2,2.3,0.7
			c0.9,0.6,2,0.9,3.1,0.8c1.1,0,2.1-0.3,3.1-0.8c0.2-0.1,0.3-0.2,0.5-0.3C19.5,28.5,19.5,28.6,19.5,28.8z M19.5,40.7h-18v-7.5h18
			V40.7z M17.2,46H3.7c-1.2,0-2.2-1-2.2-2.2v-1.5h18v1.5C19.5,45,18.5,46,17.2,46z M9,20.5V16h3v4.5H9z M15.7,20.5h-2.2V16h2.2V20.5
			z M5.2,16h2.2v4.5H5.2V16z M5.2,25c1.2,0,2.2-1,2.2-2.2V22h6v0.7c0,1.2,1,2.2,2.2,2.2c1.4,0,2.6,0.8,3.3,2
			c-0.3,0.1-0.5,0.3-0.8,0.4c-0.7,0.4-1.5,0.7-2.3,0.7c-0.8,0-1.6-0.2-2.3-0.7c-0.9-0.6-2-0.9-3.1-0.8c-1.1,0-2.1,0.3-3.1,0.8
			C6.7,27.8,5.9,28,5.1,28c-0.8,0-1.6-0.2-2.3-0.7C2.5,27.2,2.3,27.1,2,27C2.6,25.8,3.9,25,5.2,25L5.2,25z"/>
		<path id="Shape_8_" class="st0" d="M6,36.2h9c0.4,0,0.7-0.3,0.7-0.7s-0.3-0.7-0.7-0.7H6c-0.4,0-0.7,0.3-0.7,0.7S5.6,36.2,6,36.2z"
			/>
		<path id="Shape_9_" class="st0" d="M14.2,37.7H6.7c-0.4,0-0.7,0.3-0.7,0.7s0.3,0.7,0.7,0.7h7.5c0.4,0,0.7-0.3,0.7-0.7
			S14.7,37.7,14.2,37.7z"/>
	</g>
</g>
</svg>
