<svg xmlns="http://www.w3.org/2000/svg" width="15.171" height="18.739" viewBox="0 0 15.171 18.739">
  <g id="career" transform="translate(-11.285 -1.632)" style="isolation: isolate">
    <circle id="Ellipse_135" data-name="Ellipse 135" cx="1.564" cy="1.564" r="1.564" transform="matrix(0.108, -0.994, 0.994, 0.108, 16.486, 4.741)" fill="#fff"/>
    <path id="Path_4391" data-name="Path 4391" d="M21.96,21.848l-1.407-.215a.332.332,0,0,1-.2-.117c-.958-1.407-1.31-1.74-1.583-1.818l-.528,1.173-.137-.782h.02a.143.143,0,0,0,.137-.117l.02-.2a.143.143,0,0,0-.117-.137l-.254-.02a.143.143,0,0,0-.137.117l-.02.2a.143.143,0,0,0,.117.137h.02l-.215.762L17.308,19.6a6.688,6.688,0,0,0-2.013,1,2.238,2.238,0,0,0-.86.9l-.743,1.427a.394.394,0,0,0-.059.215h-.059a.506.506,0,0,0-.274.215l-.215.391-.391-.215a.414.414,0,0,0-.547.176l-.821,1.564a.414.414,0,0,0,.176.547l2.346,1.231a.414.414,0,0,0,.547-.176l.821-1.564a.414.414,0,0,0-.176-.547l-.391-.215.215-.391a.451.451,0,0,0-.039-.469.426.426,0,0,0,.1-.156l.743-1.407A.828.828,0,0,1,16,21.77a.585.585,0,0,1,.156-.078l-.43,1.876a1.387,1.387,0,0,0,.2,1.075,1.315,1.315,0,0,0,.84.567l-1.075,4.632a.8.8,0,0,0,.606.958.541.541,0,0,0,.176.02.8.8,0,0,0,.782-.625L18.324,25.5l.938.176.528,2.365a.8.8,0,0,0,.782.625.541.541,0,0,0,.176-.02.8.8,0,0,0,.606-.958l-.547-2.521a1.354,1.354,0,0,0-1.114-1.056l-1.016-.176.41-1.779c.039.059.059.1.1.156a1.7,1.7,0,0,0,1.153.723l1.407.215a.712.712,0,0,0,.215-1.407ZM14.22,24.33l-.762-.391.2-.391a.7.7,0,0,0,.293.293.642.642,0,0,0,.332.078c.02,0,.059-.02.078-.02l.059.039Z" transform="translate(0 -14.456)" fill="#fff"/>
    <path id="Path_4392" data-name="Path 4392" d="M32.754,78.8H30.193a.3.3,0,0,0-.293.293v3.069a.3.3,0,0,0,.293.293h2.561a.3.3,0,0,0,.293-.293V79.074A.284.284,0,0,0,32.754,78.8Z" transform="translate(-14.977 -62.085)" fill="#fff"/>
    <path id="Path_4393" data-name="Path 4393" d="M54.173,68h-2.58a.3.3,0,0,0-.293.293v5.18a.3.3,0,0,0,.293.293h2.58a.3.3,0,0,0,.293-.293v-5.18A.288.288,0,0,0,54.173,68Z" transform="translate(-32.194 -53.395)" fill="#fff"/>
    <path id="Path_4394" data-name="Path 4394" d="M75.654,57.2H73.093a.3.3,0,0,0-.293.293v7.291a.3.3,0,0,0,.293.293h2.561a.3.3,0,0,0,.293-.293V57.493A.288.288,0,0,0,75.654,57.2Z" transform="translate(-49.491 -44.706)" fill="#fff"/>
  </g>
</svg>
