<svg xmlns="http://www.w3.org/2000/svg" width="18.458" height="18.062" viewBox="0 0 18.458 18.062">
  <g id="noun_contact_us_1212887" data-name="noun_contact us_1212887" transform="translate(-187.932 -72.427)">
    <g id="Group_1997" data-name="Group 1997" transform="translate(186.683 70.518)">
      <path id="Path_4403" data-name="Path 4403" d="M13.817,26.772c-1.932-1.553-2.472-.79-3.349.087-.612.612-2.161-.666-3.5-2s-2.616-2.886-2-3.5c.877-.877,1.64-1.417.086-3.349s-2.588-.449-3.437.4c-.981.98-.052,4.633,3.558,8.243s7.263,4.538,8.243,3.558C14.265,29.361,15.749,28.326,13.817,26.772Z" transform="translate(0 -10.603)" fill="#fff"/>
      <g id="Group_1996" data-name="Group 1996" transform="translate(7.401 1.909)">
        <path id="Path_4404" data-name="Path 4404" d="M24.579,13.031a1.1,1.1,0,0,1-.956-1.619,3.97,3.97,0,0,0,.3-.709A4.683,4.683,0,0,1,21.747,6.9c0-2.751,2.76-4.988,6.153-4.988S34.053,4.147,34.053,6.9s-2.76,4.988-6.153,4.988c-.224,0-.456-.012-.7-.036A5.333,5.333,0,0,1,24.837,13,1.12,1.12,0,0,1,24.579,13.031ZM27.9,3.047c-2.765,0-5.014,1.727-5.014,3.85a3.614,3.614,0,0,0,1.98,3.055l.343.2-.071.391a4.758,4.758,0,0,1-.468,1.325,3.986,3.986,0,0,0,1.921-1.014l.2-.2.281.036a6.5,6.5,0,0,0,.831.058c2.765,0,5.015-1.727,5.015-3.85S30.665,3.047,27.9,3.047Z" transform="translate(-21.747 -1.909)" fill="#fff"/>
        <g id="Group_1995" data-name="Group 1995" transform="translate(2.317 3.934)">
          <circle id="Ellipse_137" data-name="Ellipse 137" cx="1.013" cy="1.013" r="1.013" fill="#fff"/>
          <circle id="Ellipse_138" data-name="Ellipse 138" cx="1.013" cy="1.013" r="1.013" transform="translate(2.823)" fill="#fff"/>
          <circle id="Ellipse_139" data-name="Ellipse 139" cx="1.013" cy="1.013" r="1.013" transform="translate(5.646)" fill="#fff"/>
        </g>
      </g>
    </g>
  </g>
</svg>
