<svg xmlns="http://www.w3.org/2000/svg" width="14.581" height="18.099" viewBox="0 0 14.581 18.099">
  <g id="noun_Log_Out_861869" data-name="noun_Log Out_861869" transform="translate(-38 -33.9)">
    <g id="Group_2020" data-name="Group 2020" transform="translate(17 -932.461)">
      <path id="Path_4415" data-name="Path 4415" d="M22.508,14A1.516,1.516,0,0,0,21,15.508V30.591A1.516,1.516,0,0,0,22.508,32.1H26.53a.5.5,0,1,0,0-1.006H22.508a.491.491,0,0,1-.5-.5V15.508a.491.491,0,0,1,.5-.5H26.53a.5.5,0,1,0,0-1.006Zm8.979,4.517a.5.5,0,0,0-.306.841l2.789,3.189H24.975a.5.5,0,0,0,.047,1.006H33.97l-2.789,3.182a.5.5,0,1,0,.754.668l3.519-4.022a.5.5,0,0,0,0-.668L31.935,18.69A.5.5,0,0,0,31.487,18.517Z" transform="translate(0 952.362)" fill="#fff"/>
    </g>
  </g>
</svg>
