<svg xmlns="http://www.w3.org/2000/svg" width="19.899" height="14.583" viewBox="0 0 19.899 14.583">
  <g id="noun_services_1546238" transform="translate(-183 -56.434)">
    <g id="Group_1986" data-name="Group 1986" transform="translate(182 42.467)">
      <path id="Path_4380" data-name="Path 4380" d="M51.973,19.152l1.348,1.338a.329.329,0,0,0,.463,0l1.343-1.343L56.471,17.8a2.2,2.2,0,0,0,.022-3.119l-.018-.019-.01-.01a2.15,2.15,0,0,0-1.435-.625,2.244,2.244,0,0,0-1.488.436,2.2,2.2,0,0,0-2.924.118h-.041v.086a2.273,2.273,0,0,0,.027,3.145Z" transform="translate(-39.011 0)" fill="#fff"/>
      <path id="Path_4381" data-name="Path 4381" d="M20.822,46.99a1.2,1.2,0,0,0-.91-.741,1.322,1.322,0,0,0-.565.042l-.035.013-3.5,1.626c0-.043.014-.1.014-.141a1.361,1.361,0,0,0-1.353-1.35H11.553c-.013,0-.027-.042-.038-.063-.052-.094-.109-.18-.169-.268a3.336,3.336,0,0,0-.413-.487,3.538,3.538,0,0,0-2.446-.968l-3.625,0v-.39c0-.182-.042-.264-.224-.264H1.35c-.182,0-.35.082-.35.264v6.574c0,.182.168.274.35.274H4.637c.182,0,.224-.092.224-.274v-.647l6.679,2.2c.007,0,.041,0,.048.006a2.784,2.784,0,0,0,2.151-.331L20.13,48.6l.011,0L20.3,48.5h0A1.359,1.359,0,0,0,20.822,46.99Zm-.85.941-.154.087-6.383,3.468-.025.015a2.185,2.185,0,0,1-1.632.256L4.953,49.509c-.013,0-.092-.008-.092-.01V45.31H8.484a2.854,2.854,0,0,1,2.306,1.176c.049.071.1.144.143.22.052.093.09.114.117.179l.088.164h3.333a.709.709,0,0,1,.7.716.7.7,0,0,1-.4.635l-.031.023a.618.618,0,0,1-.241.055s-3.331.005-4.551.005c-.2,0-.2.6,0,.6h4.53a1.347,1.347,0,0,0,.38-.031.319.319,0,0,0,.125-.023l.009,0,.036-.013,4.542-2.1a.581.581,0,0,1,.253-.014c.141.021.275.06.4.347A.538.538,0,0,1,19.972,47.931Z" transform="translate(0 -23.93)" fill="#fff"/>
    </g>
  </g>
</svg>
